<svg xmlns="http://www.w3.org/2000/svg" height="24" width="24" xmlns:v="https://vecta.io/nano"><path d="M10.9 0c-.38-.004-.738.13-1.052.542-.63 0-1.3-.206-1.528.04-.565.59-1.29.812-1.908 1.248-.124.088-.27.226-.3.366-.12.6-.72.815-.914 1.202C4.68 4.434 3.726 4.562 2.94 5.076c-.857.56-1.673 1.276-1.948 2.415-.023.093-.046.222-.108.263C.04 8.287.196 9.033.505 9.77c-.77 1.028-.632 1.675.317 2.527-.114 1.158-.103 1.155.36 2.32.07.182.075.463-.01.63-.358.7-.164 1.323.12 2.007.304.736.27 1.656 1.188 1.985.067.024.068.24.112.362.063.182.09.447.215.526.84.532 1.656 1.207 2.574 1.467.708.2 1.55-.125 2.25.406a.125.132 0 0 0 .089.018c.723-.176 1.083.433 1.592.765.603.392 1.28.845 1.95.89.904.062 1.9.787 2.77-.154.02-.02.113.035.173.05.893.247 1.506-.103 1.815-.978 1.292.03 1.523-.188 2.133-1.963.246-.136.514-.24.732-.412a227.706 239.99 0 0 0 2.912-2.343c.93-.756 1.775-1.563 1.56-2.926l.364-.4c.785-.814-.344-1.78.176-2.656.085-.143-.256-.613-.46-.884-.14-.19-.382-.296-.54-.412.336-1.24-.86-2.227-.347-3.41-.487-.496-.06-1.39-.712-1.812.16-.96-.505-1.213-1.113-1.423-.124-.333-.154-.687-.337-.85-.637-.568-1.688-.286-2.208-1.162-.063-.106-.313-.196-.424-.15-.81.328-1.547.108-2.3-.232-.132-.06-.315.012-.462-.026-.234-.062-.47-.14-.682-.255-.484-.264-.933-.735-1.433-.8C12.228.388 11.532.006 10.9 0zm.127 1.526a2.29 2.29 0 0 1 .912.097c.2.063.416.06.598.083.23.493-.017.765-.25 1.1-.214.296-.327.676-.494 1.042-1.237.483-1.25.504-.975 1.673-.6.282-.964.74-.647 1.51a.396.417 0 0 1-.049.36c-.285.352-.23.678-.082 1.084.08.224-.08.547-.13.82l.776 1.15c.085.15.107.492.02.564-.134.113-.42.15-.582.075-.647-.297-1.327-.568-1.887-1.004C7.8 9.73 7.49 9.18 7.18 8.688c-.228-.36-.37-.78-.633-1.36l.35-.74c.096-.22.294-.497.234-.665-.175-.496.16-.877.167-1.28.02-1.046 1.118-1.26 1.317-2.117.796-.37 1.545-.918 2.412-1zm5.9 2.213a4.61 4.61 0 0 1 1.421.289c.186.455.546.926 1.118.722l1.238 1.154.328 1.53-.188.156c-.824-.567-1.87.063-2.666-.673-.06-.056-.18-.073-.267-.06-.797.128-1.635.146-2.382.428-1.407.533-2.697 1.318-3.594 2.843-.616-.688-.61-1.394-.47-2.093.137-.676.365-1.332.57-2.053.78.01.743-.76.956-1.215 1.3-.527 2.56-1.088 3.938-1.03zm-12.59 2.03c-.088.816.007 1.456.736 1.853-.286.847-.34 1.59.65 1.893.055.017.14.066.145.107.073.93.846 1.03 1.413 1.44.904.658 1.808 1.077 2.918.937.18-.023.378.074.584.12-.113.938-.79 1.38-1.34 1.586-1.044.392-2.102 1.112-3.326.483-.234-.12-.596.037-.802.057-1.276-.625-1.887-1.92-2.958-2.753.05-.583.46-1.268-.24-1.662.172-1.78.777-3.173 2.222-4.06zm12.493 2.96c.287.013.575.074.86.202.91.4 2.034.48 2.637 1.557.185.33.6.512.924.76l.574 1.862v1.934c-.49.78-.862 1.86-1.95 2.693-.12-.337-.307-.593-.27-.805.118-.647-.124-1.076-.654-1.43.244-.8-.012-1.37-.684-1.792-.152-.095-.28-.342-.302-.535-.06-.547-.334-.813-.834-.88-.148-.02-.354-.045-.426-.15-.72-1.05-1.84-1.03-2.88-1.222l-.78-.127c.077-.944.795-1.217 1.263-1.4.802-.31 1.66-.707 2.52-.67zm-3.817 3.187c.457.048.76.02 1.02.12 1.098.425 1.98 1.202 2.666 2.165.324.454.4 1.096.656 1.803a1.32 1.32 0 0 0 .105 1.643c-.66.565-1.003 1.227-.896 1.996l-1.608 1.625-1.4.656c-.442.088-.875.216-1.313.248-.422.032-.933.114-1.257-.1-.538-.338-1.402-.084-1.72-1.046 1.746.025 1.934-.093 2.326-1.448.744-.26 1.383-.67 1.392-1.673.001-.122.18-.244.277-.366.118-.148.32-.284.338-.445.137-1.195.38-2.398-.017-3.59l-.57-1.597zm-1.04.83c.692 1.577.192 2.96-.432 4.262l-.8 1.112c-.074.104-.135.31-.202.31-.93-.002-1.488.973-2.47.963-.787-.008-1.536.15-2.342-.138-.94-.34-1.694-.852-2.396-1.584-.575-.598-.725-1.183-.518-1.96H4.7c.452.582 1.092.9 1.918.382.136-.085.352-.02.528-.042l1.073-.17c.346-.084.682-.22 1.022-.33.117-.04.268-.037.347-.116a44.453 46.851 0 0 0 1.451-1.538c.296-.33.562-.7.933-1.15z" fill="#000002" paint-order="markers fill stroke"/></svg>