<?xml version="1.0" encoding="UTF-8" standalone="no"?>
<svg
   xmlns:dc="http://purl.org/dc/elements/1.1/"
   xmlns:cc="http://creativecommons.org/ns#"
   xmlns:rdf="http://www.w3.org/1999/02/22-rdf-syntax-ns#"
   xmlns:svg="http://www.w3.org/2000/svg"
   xmlns="http://www.w3.org/2000/svg"
   id="svg18"
   version="1.1"
   viewBox="0 0 24 24"
   height="24"
   width="24">
  <metadata
     id="metadata24">
    <rdf:RDF>
      <cc:Work
         rdf:about="">
        <dc:format>image/svg+xml</dc:format>
        <dc:type
           rdf:resource="http://purl.org/dc/dcmitype/StillImage" />
        <dc:title></dc:title>
      </cc:Work>
    </rdf:RDF>
  </metadata>
  <defs
     id="defs22" />
  <path
     d="M 10.899005,-3.2265151e-4 C 10.519011,-0.00408686 10.160831,0.12934501 9.8474286,0.5418837 9.2188383,0.5418837 8.557265,0.33576492 8.3197578,0.58234897 7.7545623,1.1714479 7.0306835,1.3946374 6.4119149,1.8303448 6.287804,1.9188037 6.1405318,2.0568279 6.1119595,2.1961037 5.992313,2.7861434 5.3919111,3.011375 5.1981553,3.3981477 4.6802826,4.4342467 3.7255218,4.5624275 2.939784,5.0762423 2.0826155,5.6361687 1.266841,6.3526862 0.99183279,7.49136 0.96861779,7.5845242 0.94620639,7.7137308 0.88370453,7.754196 0.03992921,8.2868319 0.19634461,9.0326914 0.50528245,9.770477 c -0.77145171,1.02763 -0.63174216,1.67465 0.31739347,2.527244 -0.11428916,1.158436 -0.10327098,1.154521 0.35924298,2.319535 0.071431,0.181623 0.075181,0.462932 -0.00893,0.63044 -0.35804646,0.710494 -0.1635585,1.322941 0.1185929,2.007086 0.3035805,0.735904 0.2697134,1.65566 1.187598,1.985029 0.066966,0.02447 0.067859,0.239752 0.1116105,0.362089 0.062502,0.181623 0.088574,0.446614 0.2145064,0.525662 0.8402038,0.531695 1.65613,1.206994 2.5740147,1.466725 0.708057,0.199503 1.5514126,-0.125499 2.2496478,0.406196 a 0.12500375,0.13174738 0 0 0 0.088931,0.01835 c 0.723236,-0.175976 1.0832557,0.433355 1.5921905,0.764606 0.6027056,0.392419 1.2800383,0.84531 1.9497013,0.891421 0.904492,0.06211 1.900557,0.786664 2.769334,-0.154389 0.01964,-0.0207 0.112824,0.03454 0.172648,0.05148 0.892883,0.246556 1.506473,-0.102631 1.815411,-0.97781 1.292003,0.03105 1.522974,-0.188154 2.132814,-1.96298 0.246436,-0.136453 0.513685,-0.238557 0.732442,-0.41171 a 227.70594,239.99009 0 0 0 2.912337,-2.343438 c 0.928599,-0.755666 1.775089,-1.563446 1.560797,-2.926091 0.150004,-0.162802 0.254659,-0.284038 0.364484,-0.398846 0.784845,-0.814001 -0.344421,-1.778834 0.17613,-2.655896 0.08482,-0.14304 -0.255963,-0.613048 -0.458647,-0.884072 -0.141076,-0.189151 -0.381681,-0.295961 -0.540615,-0.41171 C 23.232642,9.3581452 22.036472,8.3728158 22.54988,7.1899126 22.063258,6.6939778 22.49015,5.8011258 21.838368,5.3776521 21.999078,4.4177783 21.333799,4.1648986 20.725745,3.9550438 20.601634,3.6219112 20.572214,3.267793 20.389172,3.1040499 19.752546,2.535654 18.701032,2.8176216 18.181374,1.942443 18.117984,1.836104 17.86832,1.7465534 17.757602,1.791724 16.948649,2.1201514 16.210726,1.8998603 15.467846,1.5601403 15.335699,1.4999129 15.153033,1.5720917 15.005707,1.5344496 14.771772,1.4723401 14.536345,1.3956537 14.323839,1.2789632 13.839896,1.0145274 13.391248,0.54441513 12.89034,0.47760039 12.227936,0.38820038 11.532121,0.00563421 10.898789,-2.7559887e-4 Z M 11.026312,1.5252084 c 0.289,-0.027385 0.591295,-0.00282 0.912063,0.097418 0.199113,0.06305 0.416022,0.059192 0.59817,0.082718 0.231257,0.4931117 -0.01714,0.7652637 -0.251124,1.0899269 -0.214292,0.2964316 -0.326563,0.6760711 -0.493532,1.0421406 -1.236645,0.4827601 -1.250752,0.5037832 -0.974851,1.6725707 -0.600911,0.2823158 -0.9639575,0.7410508 -0.646984,1.5108319 a 0.39554758,0.41688636 0 0 1 -0.04884,0.3602538 C 9.8363836,7.733022 9.891921,8.0589462 10.039244,8.465481 c 0.08036,0.2239706 -0.07902,0.5468363 -0.1290487,0.8197417 0.2634007,0.3830087 0.5501417,0.7468763 0.7760407,1.1505883 0.08482,0.150568 0.106682,0.491803 0.0192,0.564264 -0.133923,0.112927 -0.420851,0.149703 -0.582463,0.07538 C 9.4756317,10.778081 8.7958971,10.507613 8.2360589,10.071906 7.7985458,9.7303035 7.4908669,9.1810107 7.1792504,8.6878991 6.951565,8.3265349 6.8104983,7.9065336 6.5462047,7.3277862 6.6051347,7.2054494 6.7592289,6.9003977 6.896733,6.5889093 6.993164,6.3687029 7.1911347,6.0920052 7.1304186,5.9235567 6.9554134,5.427622 7.2906913,5.0461851 7.2978343,4.6424734 7.3174773,3.5960228 8.4153768,3.3833449 8.6144899,2.5251048 9.4100494,2.1559773 10.159313,1.6073247 11.026321,1.5252367 Z M 16.936436,3.73815 c 0.458871,0.019574 0.931322,0.106706 1.421292,0.2885644 0.18572,0.4545285 0.545508,0.9256006 1.117846,0.7223333 l 1.23818,1.1542576 0.327859,1.5292107 -0.188345,0.1562335 C 20.029136,7.0222358 18.983274,7.6519883 18.186822,6.9160474 18.126102,6.8595842 18.006611,6.8431158 17.920001,6.8572316 17.122656,6.9852148 16.285157,7.0031607 15.537814,7.2854765 14.130628,7.8181123 12.840956,8.6034114 11.943608,10.128858 11.327518,9.4409486 11.334312,8.7345847 11.474495,8.0353826 11.611106,7.3597067 11.839435,6.7031907 12.043012,5.9823443 12.821607,5.9917548 12.786169,5.2228959 12.998675,4.7674264 14.297821,4.2409074 15.559814,3.679353 16.936436,3.73815 Z M 4.3471208,5.7672949 c -0.088395,0.8158928 0.00714,1.4555733 0.7359328,1.8526976 -0.2857228,0.8469474 -0.3396887,1.5910567 0.6487338,1.8931349 0.055359,0.016939 0.1411738,0.066156 0.1447454,0.1066024 0.073217,0.9297602 0.8464807,1.0288532 1.4125691,1.4391522 0.9044915,0.657796 1.8077149,1.076649 2.9175691,0.937373 0.181256,-0.02258 0.377958,0.07434 0.584214,0.119476 -0.112503,0.93823 -0.789309,1.380091 -1.3393254,1.586182 C 8.4077783,14.094332 7.3491662,14.813927 6.1259153,14.185304 5.8919797,14.06579 5.5299688,14.222475 5.3237126,14.242237 4.0477815,13.617378 3.4366025,12.321756 2.3660347,11.488924 2.4169287,10.905471 2.8271824,10.220743 2.1253757,9.8273825 2.2977023,8.0469105 2.9024347,6.6546606 4.3471208,5.7672479 Z M 16.840522,8.7264635 c 0.287134,0.012798 0.575098,0.073779 0.86149,0.2021851 0.910742,0.4102991 2.034106,0.4802096 2.636803,1.5567744 0.184827,0.33031 0.609973,0.512497 0.924268,0.760935 l 0.57375,1.861882 v 1.933572 c -0.489301,0.780133 -0.86216,1.860762 -1.949693,2.692653 -0.119646,-0.336897 -0.306955,-0.593296 -0.268561,-0.805033 0.11786,-0.647444 -0.123593,-1.076131 -0.653975,-1.429967 0.243766,-0.790484 -0.01214,-1.371387 -0.68361,-1.792037 -0.15179,-0.09505 -0.28116,-0.341941 -0.301697,-0.534857 -0.06072,-0.546752 -0.333572,-0.812684 -0.833587,-0.878558 -0.148219,-0.01882 -0.354091,-0.04536 -0.425522,-0.150719 -0.72145,-1.051155 -1.838948,-1.031233 -2.880943,-1.222267 -0.250901,-0.04517 -0.503587,-0.08263 -0.781274,-0.126816 0.07679,-0.9438762 0.794721,-1.2170921 1.262592,-1.3987156 0.802256,-0.3105473 1.658558,-0.707314 2.519959,-0.6690319 z m -3.817427,3.1870825 c 0.457157,0.04799 0.761255,0.01976 1.020192,0.119476 1.098247,0.425356 1.978916,1.201517 2.666437,2.165155 0.324117,0.453578 0.410173,1.096336 0.655716,1.803067 -0.270544,0.419709 -0.396271,1.026773 0.104637,1.643162 -0.659841,0.564632 -1.002628,1.227227 -0.896375,1.996067 l -1.607888,1.624784 -1.398622,0.656159 c -0.441978,0.08846 -0.874758,0.216141 -1.313164,0.248136 -0.422335,0.032 -0.933243,0.114141 -1.25736,-0.09006 -0.538409,-0.337838 -1.4024881,-0.08404 -1.7212476,-1.04582 1.7464806,0.02541 1.9344066,-0.09326 2.3263826,-1.448346 0.743772,-0.260672 1.382711,-0.669409 1.39164,-1.672571 8.92e-4,-0.122337 0.180853,-0.244363 0.277285,-0.365759 0.11786,-0.147745 0.319572,-0.283878 0.338322,-0.444798 0.136612,-1.195137 0.379896,-2.398179 -0.01741,-3.591434 -0.157147,-0.472408 -0.333688,-0.939424 -0.568517,-1.59722 z m -1.04112,0.828936 c 0.691985,1.577204 0.191639,2.958942 -0.432486,4.2623 -0.26608,0.368893 -0.535311,0.739329 -0.798712,1.111986 -0.07411,0.103516 -0.135334,0.310622 -0.202301,0.310622 C 9.6171985,18.42549 9.0603782,19.400853 8.0790988,19.390501 7.2924681,19.382032 6.5432939,19.541559 5.7370197,19.252656 4.79592,18.913877 4.0426921,18.400439 3.3408853,17.6683 2.7658681,17.070731 2.6157921,16.485415 2.8229412,15.707165 h 1.8869137 c 0.4517993,0.58157 1.0923899,0.900822 1.9183076,0.382302 0.1357183,-0.08469 0.3516177,-0.01873 0.5284087,-0.04225 0.3589393,-0.04705 0.7207091,-0.08441 1.0725054,-0.169098 0.345546,-0.08375 0.6817434,-0.219792 1.0219323,-0.330836 0.1169678,-0.03858 0.2684634,-0.0368 0.3470372,-0.115797 a 44.453119,46.851251 0 0 0 1.4509359,-1.538395 c 0.295545,-0.329369 0.562446,-0.690413 0.932993,-1.150588 z"
     style="fill:#000002;fill-opacity:1;stroke:none;stroke-width:163.976;stroke-linecap:round;stroke-linejoin:round;stroke-miterlimit:4;stroke-dasharray:none;paint-order:markers fill stroke"
     id="rect849" />
</svg>
